<?xml version="1.0" encoding="iso-8859-1"?>
<!-- Generator: Adobe Illustrator 22.1.0, SVG Export Plug-In . SVG Version: 6.00 Build 0)  -->
<svg xmlns="http://www.w3.org/2000/svg" xmlns:xlink="http://www.w3.org/1999/xlink" version="1.1" id="Layer_1_1_" x="0px" y="0px" viewBox="0 0 64 64" style="enable-background:new 0 0 64 64;" xml:space="preserve" width="512" height="512">
<g>
	<g>
		<path style="fill:#CF9E76;" d="M58,50H27.96c0.02-0.14,0.02-0.27,0.03-0.41c0.12-2.8-0.64-5.42-2.04-7.59H58V50z"/>
		<path style="fill:#B27946;" d="M24.32,58c2.05-2.11,3.41-4.92,3.64-8H58v4c0,2.21-1.79,4-4,4H24.32z"/>
		<path style="fill:#B27946;" d="M15,38v-4h0.4H58v8H25.95c-0.38-0.6-0.81-1.16-1.28-1.69c-1.92-2.14-5.05-2.83-7.69-1.7    C16.4,38.86,15.72,39,15,39V38z"/>
		<path style="fill:#DFB28B;" d="M15.41,30C15.15,30.61,15,31.29,15,32v2v4c0-1.66-0.67-3.16-1.76-4.24    c-0.62-0.63-1.39-1.12-2.24-1.41V31c0-0.55,0.45-1,1-1h2.67H15.41z"/>
		<path style="fill:#B4DD7F;" d="M11,32.35c0.85,0.29,1.62,0.78,2.24,1.41C14.33,34.84,15,36.34,15,38h-4c-0.34,0-0.68-0.03-1-0.09    c-1.26-0.21-2.38-0.81-3.24-1.67C5.67,35.16,5,33.66,5,32h4C9.7,32,10.37,32.12,11,32.35z"/>
		<path style="fill:#DFB28B;" d="M15.4,34H15v-2c0-0.71,0.15-1.39,0.41-2h13.92H30h25.69H61c0.55,0,1,0.45,1,1v2c0,0.55-0.45,1-1,1    h-3H15.4z"/>
		<path style="fill:#B4DD7F;" d="M16.33,6.11l2.37,6.52c-0.86,0.33-1.64,0.8-2.34,1.36l-4-5.87c-0.05-0.08-0.1-0.16-0.14-0.24    c-0.52-1.04-0.1-2.3,0.94-2.82l0.25-0.12c1.03-0.52,2.29-0.1,2.81,0.94l0.01,0.01C16.27,5.96,16.3,6.04,16.33,6.11z"/>
		<path style="fill:#B4DD7F;" d="M24,3.9c0,0.07,0,0.13-0.01,0.19l-0.8,7.99C22.8,12.03,22.4,12,22,12s-0.8,0.03-1.19,0.08    l-0.8-7.99C20,4.03,20,3.97,20,3.9C20,2.85,20.85,2,21.9,2h0.2C23.15,2,24,2.85,24,3.9z"/>
		<path style="fill:#B4DD7F;" d="M32,6.94c0,0.32-0.07,0.64-0.22,0.94c-0.04,0.08-0.09,0.16-0.14,0.24l-4,5.87    c-0.7-0.56-1.48-1.03-2.34-1.36l2.37-6.52c0.03-0.07,0.06-0.15,0.1-0.22l0.01-0.01c0.52-1.04,1.78-1.46,2.81-0.94l0.25,0.12    C31.58,5.43,32,6.17,32,6.94z"/>
		<path style="fill:#FF826E;" d="M23.19,12.08c0.74,0.1,1.44,0.28,2.11,0.55c0.86,0.33,1.64,0.8,2.34,1.36    C29.69,15.64,31,18.17,31,21v0.07c0,0.62-0.06,1.23-0.19,1.84L29.33,30H15.41h-0.74l-1.48-7.09C13.06,22.3,13,21.69,13,21.07V21    c0-2.48,1.01-4.74,2.64-6.36c0.23-0.23,0.47-0.44,0.72-0.65c0.7-0.56,1.48-1.03,2.34-1.36c0.67-0.27,1.37-0.45,2.11-0.55    C21.2,12.03,21.6,12,22,12S22.8,12.03,23.19,12.08z"/>
		<path style="fill:#B4DD7F;" d="M48.84,15h4c0,1.66-0.67,3.16-1.76,4.24c-0.86,0.87-1.98,1.47-3.24,1.67    c-0.32,0.06-0.66,0.09-1,0.09h-4c0-1.66,0.67-3.16,1.76-4.24C45.68,15.67,47.18,15,48.84,15z"/>
		<path style="fill:#FCD770;" d="M47.84,20.92c1.78,0.1,3.49,1.07,4.72,2.45c1.63,1.83,2.74,4.11,3.13,6.63H30v-0.02    c0.4-2.54,1.53-4.84,3.17-6.67c1.93-2.14,5.05-2.83,7.69-1.7c0.31,0.12,0.63,0.23,0.98,0.3V21h1h4c0.34,0,0.68-0.03,1-0.09V20.92z    "/>
		<path style="fill:#FCD770;" d="M11,38h4v1c0.72,0,1.4-0.14,1.98-0.39c2.64-1.13,5.77-0.44,7.69,1.7c0.47,0.53,0.9,1.09,1.28,1.69    c1.4,2.17,2.16,4.79,2.04,7.59c-0.01,0.14-0.01,0.27-0.03,0.41c-0.23,3.08-1.59,5.89-3.64,8c-2.26,2.34-5.38,3.86-8.8,3.99    C8.1,62.28,2,56.35,2,49c0-3.31,1.24-6.34,3.28-8.63c1.23-1.38,2.95-2.35,4.72-2.45v-0.01C10.32,37.97,10.66,38,11,38z"/>
	</g>
	<g>
		<rect x="53" y="37" width="2" height="2"/>
		<rect x="53" y="45" width="2" height="2"/>
		<rect x="53" y="53" width="2" height="2"/>
		<path d="M61,29h-4.483c-0.51-2.335-1.607-4.498-3.209-6.298c-0.727-0.817-1.576-1.476-2.485-1.95    c1.823-1.265,3.021-3.37,3.021-5.752v-1h-5c-2.548,0-4.775,1.373-6,3.413V15c0-2.206,1.794-4,4-4V9c-3.309,0-6,2.691-6,6v5.549    c-2.959-1.072-6.286-0.27-8.412,2.094c-0.257,0.286-0.498,0.583-0.729,0.887l0.087-0.417C31.929,22.443,32,21.756,32,21    c0-2.809-1.168-5.347-3.039-7.165l3.506-5.16c0.075-0.111,0.143-0.228,0.206-0.353c0.763-1.527,0.142-3.391-1.385-4.154    l-0.25-0.125c-0.739-0.37-1.578-0.43-2.363-0.168s-1.421,0.813-1.799,1.567c-0.054,0.107-0.101,0.218-0.141,0.329l-2.039,5.608    c-0.138-0.039-0.278-0.075-0.418-0.108l0.706-7.069C24.995,4.104,25,4.004,25,3.905C25,2.303,23.696,1,22.095,1h-0.189    C20.304,1,19,2.303,19,3.905c0,0.1,0.005,0.199,0.015,0.29l0.707,7.078c-0.141,0.033-0.28,0.069-0.418,0.108l-2.038-5.607    c-0.041-0.113-0.088-0.224-0.149-0.346c-0.37-0.74-1.006-1.291-1.791-1.553c-0.784-0.262-1.623-0.202-2.363,0.168l-0.25,0.125    c-1.526,0.764-2.147,2.627-1.383,4.158c0.062,0.121,0.129,0.237,0.206,0.351l3.508,5.163C13.17,15.668,12,18.225,12,21.072    c0,0.684,0.071,1.371,0.211,2.04L13.438,29H12c-1.103,0-2,0.897-2,2v0.08C9.672,31.033,9.34,31,9,31H4v1    c0,2.382,1.198,4.487,3.021,5.752c-0.91,0.474-1.759,1.133-2.485,1.951C2.256,42.265,1,45.567,1,49    c0,3.842,1.525,7.425,4.294,10.09c2.634,2.534,6.06,3.911,9.7,3.911c0.187,0,0.373-0.004,0.561-0.011    c3.559-0.137,6.796-1.64,9.203-3.989H54c2.757,0,5-2.243,5-5V35h2c1.103,0,2-0.897,2-2v-2C63,29.897,62.103,29,61,29z M48.844,16    h2.899c-0.465,2.279-2.484,4-4.899,4h-2.899C44.409,17.721,46.429,16,48.844,16z M33.918,23.98    c1.629-1.81,4.324-2.407,6.554-1.453c0.12,0.051,0.247,0.091,0.372,0.134v2.135c-0.993-0.37-1.936-1.149-2.294-1.505l-1.413,1.416    C37.371,24.942,39.497,27,41.844,27s4.473-2.058,4.707-2.293l-1.413-1.416c-0.358,0.355-1.301,1.134-2.294,1.505V22h4    c0.339,0,0.669-0.032,0.995-0.079c1.401,0.1,2.883,0.884,3.975,2.11c1.275,1.432,2.172,3.133,2.645,4.969H31.229    C31.707,27.142,32.62,25.423,33.918,23.98z M28.615,6.453c0.014-0.038,0.029-0.075,0.058-0.131    c0.131-0.262,0.355-0.457,0.634-0.55c0.28-0.093,0.575-0.071,0.837,0.06l0.25,0.125c0.541,0.27,0.761,0.93,0.492,1.467    c-0.022,0.045-0.049,0.09-0.075,0.129l-3.422,5.036c-0.269-0.173-0.546-0.333-0.831-0.48L28.615,6.453z M21,3.905    C21,3.406,21.406,3,21.905,3h0.189c0.499,0,0.905,0.406,0.9,0.995l-0.702,7.02C22.195,11.012,22.099,11,22,11    c-0.099,0-0.195,0.012-0.293,0.015L21,3.905z M13.191,7.556c-0.028-0.042-0.055-0.086-0.075-0.128    c-0.271-0.541-0.051-1.201,0.49-1.471l0.25-0.125c0.261-0.13,0.558-0.153,0.837-0.06c0.278,0.093,0.503,0.288,0.644,0.569    c0.019,0.036,0.034,0.073,0.049,0.113l2.057,5.657c-0.285,0.147-0.562,0.307-0.83,0.48L13.191,7.556z M22,13    c4.411,0,8,3.589,8,8.072c0,0.547-0.057,1.096-0.168,1.632L28.52,29H17.382c0.703-0.615,1.612-1,2.618-1v-2    c-1.89,0-3.576,0.88-4.677,2.25l-1.156-5.546C14.057,22.168,14,21.619,14,21C14,16.589,17.589,13,22,13z M12,31h2.09    C14.035,31.326,14,31.659,14,32v1.111c-0.574-0.587-1.251-1.068-2-1.425V31z M9,33c2.415,0,4.435,1.721,4.899,4H11    c-2.415,0-4.435-1.721-4.899-4H9z M15.478,60.991c-3.318,0.119-6.424-1.06-8.797-3.343C4.308,55.364,3,52.293,3,49    c0-2.943,1.076-5.772,3.029-7.969c1.092-1.227,2.574-2.011,3.976-2.11C10.331,38.968,10.661,39,11,39h3v2.796    c-0.993-0.37-1.936-1.149-2.294-1.505l-1.413,1.416C10.527,41.942,12.653,44,15,44s4.473-2.058,4.707-2.293l-1.413-1.416    c-0.358,0.355-1.301,1.134-2.294,1.505v-1.883c0.479-0.077,0.943-0.202,1.372-0.386c2.229-0.956,4.925-0.356,6.553,1.453    c2.115,2.351,3.203,5.393,3.063,8.565C26.715,55.725,21.658,60.752,15.478,60.991z M28.984,49c0-2.102-0.449-4.143-1.332-6H57v6    H28.984z M54,57H26.463c1.232-1.754,2.074-3.797,2.393-6H57v3C57,55.654,55.654,57,54,57z M61,33h-4v8H26.475    c-0.328-0.469-0.675-0.926-1.063-1.357c-2.227-2.475-5.776-3.259-8.826-1.954c-0.183,0.078-0.384,0.129-0.585,0.179V35h39v-2H16    v-1c0-0.347,0.058-0.678,0.142-1H61V33z"/>
		<path d="M7,49H5c0,5.514,4.486,10,10,10v-2C10.589,57,7,53.411,7,49z"/>
		<rect x="25" y="17" width="2" height="2"/>
		<rect x="25" y="21" width="2" height="2"/>
		<rect x="25" y="25" width="2" height="2"/>
	</g>
</g>
</svg>
